<?xml version="1.0" encoding="utf-8"?>
<!-- Svg Vector Icons : http://www.onlinewebfonts.com/icon -->
<!DOCTYPE svg PUBLIC "-//W3C//DTD SVG 1.1//EN" "http://www.w3.org/Graphics/SVG/1.1/DTD/svg11.dtd">
<svg version="1.1" xmlns="http://www.w3.org/2000/svg" xmlns:xlink="http://www.w3.org/1999/xlink" x="0px" y="0px" viewBox="0 0 1000 1000" enable-background="new 0 0 1000 1000" xml:space="preserve">
<metadata> Svg Vector Icons : http://www.onlinewebfonts.com/icon </metadata>
<g><g><path d="M981.1,501.5c-16.5-31.2-50-33.5-50.4-33.6c-186-14.8-335.1-91-406.8-127.7c-17.6-9-52-24.2-55.4-25.5L389,279.3c-4.8-2.1-10.5-0.9-13.9,3.1c-22.3,26.1-21.4,56-19.3,70.2c-30.2,21.8-79.3,49.8-82.8,51.9c-8.1,4.7-16.6,7-26.2,7c-43.6,0-89.6-48.2-99.6-59.4c-9-45.4-38-52.3-54.7-52.3c-12.8,0-22.8,4-23.9,4.4c-3,1.2-5.4,3.7-6.5,6.7C23,411.9,5.8,492.7,10.9,551.1C13.7,583.6,23,601,29,609l-11.6,62.7c-0.4,1.9-0.2,3.9,0.4,5.8c1.5,4.5,17.3,44.2,124.1,44.2h539.8c4.5,0,188.4-17.5,277.3-89.9c1.6-1.3,2.8-3,3.6-4.9c0,0,21.6-55.2,21.6-55.3C993.3,543.9,991.3,520.8,981.1,501.5z M818.5,475.7c29.7,6.2,60.7,11.2,92.9,14.4c-16.7,6.2-41.4,13-73.8,19.4c-52.6,10.3-60.1,13.7-100.2,44.5c-25.6,19.7-149.6,17.8-260-11.1l113-79.1c14.3,6.5,50.9,21.6,91.2,32C737,510.2,795,505.6,818.5,475.7z M396.6,541.1c54.3,22.7,130.6,40.2,204.2,46.8c13.7,1.2,35.1,2.7,57.7,2.7c13.6,0,27.7-0.5,40.9-2l-61.1,54.7c-54.1-0.4-122.1-6.5-202.2-18c-64.7-9.3-119.8-13.8-169-15.8c-13.1-22.1-26.2-42.2-39.2-60.5C249.8,534.9,310.9,505.2,396.6,541.1z M392.5,514l108.5-71c0.1-0.1,0.1-0.1,0.3-0.2c0.6-0.4,16.1-10.6,37.2-1.5c8.6,3.7,18.1,7.8,26.3,11.3l-116.9,81.8c-14.5-4.6-28.7-9.7-42.1-15.3C401.3,517.3,396.9,515.6,392.5,514z M477.4,343.9c-13.5,7.5-14.6,8.3-15.1,8.7c-5.3,3.9-6.4,11.3-2.5,16.6c2.3,3.2,5.9,4.8,9.6,4.8c2.3,0,4.7-0.7,6.7-2.1c2-1.3,14.7-8.3,27.5-15.3c3,1.5,21.1,10.8,27.6,14.1c-5.3,3.6-10.2,6.9-11.6,7.9c-5.3,3.8-6.5,11.3-2.7,16.6c2.3,3.2,6,4.9,9.6,4.9c2.4,0,4.9-0.7,7-2.3c1.9-1.4,12.8-8.7,22.2-15c8.5,4.1,17.4,8.4,26.9,12.8l-8.1,7.8c-4.7,4.6-4.9,12.1-0.3,16.8c2.3,2.4,5.4,3.6,8.6,3.6c3,0,6-1.1,8.3-3.3l14.9-14.4c8.3,3.7,17,7.4,26,11.1l-5.8,8.9c-3.6,5.5-2,12.9,3.5,16.4c2,1.3,4.2,1.9,6.5,1.9c3.9,0,7.7-1.9,10-5.4l8.3-12.8c9.7,3.8,19.7,7.5,30.1,11.2l-4,7.8c-3,5.8-0.7,13,5.1,16c1.7,0.9,3.6,1.3,5.4,1.3c4.3,0,8.5-2.3,10.6-6.4l5.6-10.8c9.2,3.1,18.7,6.1,28.4,9l-1.2,2.4c-2.8,5.9-0.3,13,5.6,15.9c1.7,0.8,3.4,1.2,5.1,1.2c4.4,0,8.7-2.5,10.7-6.8l2.8-6c10.5,2.9,21.1,5.6,32,8.3c-73.7,39.1-184.5-25.5-242.7-50c-32.3-13.6-56.8,1.6-60,3.7l-125.5,82.1c-74.6-16.6-127.3,10.3-148.6,24.4c-10.8-14.4-21.4-27.5-31.7-39.4c16.4,3.8,32.2,5.5,47.5,5.5c67.4,0,123.8-33,168.6-65.7c18.6-13.6,28.3-29.4,28.7-47c0.4-17.5-8.7-32.3-16.6-41.7c11.2-7.9,18.1-11.3,24.8-11.2C448.4,330.5,476.2,343.4,477.4,343.9z M388,304.9l20.9,9.3c-8.5,4.8-18,11.9-30.3,21.3C379,326.6,381.3,315.6,388,304.9z M285,425.1c10.5-4.8,105.9-69,106.5-69.4c5.4,6.2,12.1,16.1,11.8,26.9c-0.3,9.8-6.7,19.3-19,28.3c-41.5,30.3-93.6,60.8-155.1,60.8c-16.5,0-33.8-2.2-51.7-7.2c14.6-6.9,30.8-17.5,42-33.4c8.9,2.7,18.1,4.3,27.3,4.3C260.5,435.3,272.7,430.7,285,425.1z M82.2,324.9c2.7-0.6,6.3-1.3,10.3-1.3c17.4,0,27.8,11.7,31.9,35.8c0.4,2.1,1.3,4.1,2.6,5.7c1.7,2,31.2,36.6,69.7,56.5c-15,17.6-39.7,26.1-51,29.3c-39.1-38.9-66.8-56.3-69-57.6c-3.6-2.2-8.1-2.4-11.9-0.4l-7.4,4C64,375.2,72.1,351.3,82.2,324.9z M48.7,428.6l21.1-11.3c20.7,14.6,95.8,72.6,169,191.2c-21.6-0.6-57.5-1.5-79.6-0.7c-16.9,0.7-92.5-0.8-110.2-11.6C45.6,592.4,16.5,555.2,48.7,428.6z M941.5,615.3c-82,64.5-250,81.7-260.4,82.7H141.9c-74,0-95.2-19.6-100.3-26.2l9-48.8c22.3,7.9,103.3,8.5,108.6,8.6c15.8,0.2,167.9,2.1,273.5,17.3c84.3,12.1,155.6,18.3,211.9,18.3c49.5,0,107.5-9.3,113.7-10.1c60.2-8.3,148.1-44.2,192.3-65.1L941.5,615.3z M963,559.5c-23.8,11.8-137.6,64.3-207,73.8c-7.5,1-51.8,8.1-81.3,9.4l84.3-75.4c30.8-23.3,37.6-25.6,83.2-34.5c30.7-6,81.5-17.8,104.3-33.4c5.2,3.3,10.5,8,14.3,14.3C967.6,525.3,968.4,540.7,963,559.5z"/></g><g></g><g></g><g></g><g></g><g></g><g></g><g></g><g></g><g></g><g></g><g></g><g></g><g></g><g></g><g></g></g>
</svg>