<?xml version="1.0" encoding="utf-8"?>
<!-- Svg Vector Icons : http://www.onlinewebfonts.com/icon -->
<!DOCTYPE svg PUBLIC "-//W3C//DTD SVG 1.1//EN" "http://www.w3.org/Graphics/SVG/1.1/DTD/svg11.dtd">
<svg version="1.1" xmlns="http://www.w3.org/2000/svg" xmlns:xlink="http://www.w3.org/1999/xlink" x="0px" y="0px" viewBox="0 0 1000 1000" enable-background="new 0 0 1000 1000" xml:space="preserve">
<metadata> Svg Vector Icons : http://www.onlinewebfonts.com/icon </metadata>
<g><g transform="translate(0.000000,263.000000) scale(0.100000,-0.100000)"><path d="M4180.4,118.5c-26.8-13.4-72.7-78.5-111-151.2c-181.8-361.8-558.9-895.8-767.5-1091c-197.1-181.8-520.6-319.6-869-369.4l-88-13.4l-90,187.6c-122.5,250.7-212.5,400-313.9,507.2c-147.4,157-371.3,206.7-620.2,137.8c-130.2-36.4-147.4-55.5-300.5-327.3l-101.5-176.1l-76.6,55.5c-91.9,67-248.8,105.3-363.7,88.1c-124.4-19.1-283.3-118.7-335-212.5c-86.1-153.1-57.4-239.3,201-593.4l158.9-218.2l-47.9-149.3c-88-281.4-105.3-526.4-61.3-824.9l26.8-179.9l-72.7-135.9c-84.2-157-126.3-290.9-143.6-449.8c-23-208.6,74.6-520.6,231.6-733.1c59.3-82.3,82.3-97.6,195.2-130.2c409.6-120.6,1027.9-166.5,2587.8-193.3c3491.3-57.4,5035.9,26.8,6098.2,333.1c195.2,57.4,285.2,103.3,377.1,197.1c239.3,237.4,271.8,618.2,84.2,970.4c-168.4,317.7-436.4,453.6-1429.8,729.2c-174.2,47.9-606.8,179.9-960.9,290.9l-647,202.9v59.3c-1.9,67-28.7,109.1-90,143.6c-49.8,24.9-126.3,11.5-160.8-28.7c-19.1-23-28.7-21.1-74.7,5.7s-55.5,47.9-67,145.5c-9.6,90-23,126.3-67,168.5c-72.7,72.7-181.8,76.6-264.1,7.6c-57.4-47.9-59.3-47.9-116.7-15.3c-55.5,32.5-57.4,38.3-47.9,132.1c17.2,135.9-26.8,222-137.8,277.5c-97.6,45.9-170.4,40.2-258.4-23c-51.7-36.4-61.3-38.3-101.4-11.5l-44,28.7l26.8,189.5c30.6,212.5,19.1,269.9-63.2,323.5c-76.6,51.7-164.6,40.2-292.8-40.2c-65.1-38.3-126.3-63.2-137.8-55.5c-11.5,5.7-45.9,51.7-76.6,99.5c-42.1,67-55.5,111-55.5,185.7c0,114.8-42.1,287.1-95.7,392.4C4523,38.1,4295.3,174,4180.4,118.5z M4406.3-555.2c17.2-178,34.5-229.7,116.8-350.3c47.9-68.9,55.5-89.9,34.4-103.3c-15.3-9.6-214.4-126.3-444.1-258.4c-227.8-132.1-424.9-256.5-434.5-275.6c-51.7-97.6,21.1-229.7,126.3-229.7c32.5,0,231.6,103.4,516.8,268c256.5,147.4,472.8,268,482.3,268c7.7,0,61.3-38.3,114.8-84.2c55.5-47.9,126.3-103.4,157-126.3c32.5-23,57.4-47.9,57.4-55.5c0-9.6-155-137.8-342.6-287.1c-187.6-149.3-348.4-283.3-354.1-300.5c-40.2-107.2,26.8-218.2,134-218.2c53.6,0,126.3,49.8,447.9,306.3l384.7,308.2l172.3-109.1c93.8-59.3,168.4-114.8,166.5-124.4c-3.8-7.7-91.9-112.9-197.1-235.4c-187.6-216.3-193.3-220.1-273.7-222c-103.4,0-176.1-65.1-176.1-153.1c0-36.4,17.2-76.6,47.9-105.3c40.2-42.1,63.2-47.9,189.5-47.9c170.3,0,149.3-17.2,463.2,344.5c124.4,141.7,227.8,258.4,233.5,256.5c26.8-7.7,233.5-132.1,233.5-139.7c0-5.8-91.9-128.2-201-269.9c-216.3-277.5-231.6-319.6-160.8-409.6c30.6-38.3,55.5-49.8,112.9-49.8c84.2,0,90,5.7,354.1,350.3c122.5,160.8,179.9,222,201,212.5c112.9-45.9,1196.3-382.8,1627-505.3c553.2-158.9,930.2-283.3,1058.5-346.4c40.2-21.1,112.9-78.5,160.8-126.3c70.8-72.7,82.3-97.6,72.7-137.8c-21-80.4-93.8-162.7-197.1-218.2c-174.2-93.8-298.6-109.1-960.9-109.1c-1165.7,0-2306.4,67-3569.7,210.5c-273.7,30.6-937.9,91.9-1473.8,134c-993.4,76.6-1364.7,111-1741.8,164.6c-440.2,59.3-784.8,145.5-813.5,199.1c-40.2,74.7-63.2,380.9-40.2,549.3c11.5,91.9,28.7,174.2,38.3,183.7s42.1-19.1,78.5-72.7c65.1-93.8,128.2-132.1,199.1-112.9c24.9,5.7,179.9,145.5,344.5,312c375.2,377.1,371.3,365.6,141.6,576.1c-86.1,78.5-199.1,181.8-248.8,229.7l-91.9,86.1l42.1,65.1l40.2,63.2l53.6-101.4c74.6-147.4,189.5-269.9,319.6-338.8c170.4-90,304.3-118.7,570.4-118.7c601,0,1108.2,197.1,1433.6,558.9c153.1,170.4,442.2,568.5,578.1,798.2l130.2,216.3l34.5-80.4C4375.7-363.8,4396.7-469.1,4406.3-555.2z M1661.5-980.2c42.1-19.1,90-72.7,137.8-149.3c95.7-149.3,201-357.9,187.6-369.4c-23-24.9-229.7,63.2-306.2,130.2c-82.3,72.7-170.4,235.4-195.2,359.8c-11.5,57.4-9.6,59.3,49.8,59.3C1567.7-949.5,1625.1-962.9,1661.5-980.2z M645.1-1368.7c49.8-28.7,166.5-130.2,553.2-476.6l74.6-65.1L1131.3-2052l-141.6-141.7l-277.5,382.8c-153.1,210.5-279.5,394.3-283.3,407.7c-5.8,28.7,61.2,67,120.6,68.9C570.5-1332.3,614.5-1347.7,645.1-1368.7z M790.6-3497.1c72.7-23,132.1-42.1,132.1-42.1c0-1.9-13.4-70.8-28.7-153.1c-34.4-178-36.4-413.4-7.7-581.9c11.5-67,19.1-126.3,15.3-130.2c-3.8-3.8-49.8,3.8-99.5,15.3c-103.4,23-157,76.6-224,227.8c-59.3,135.9-80.4,275.6-57.4,394.3c19.1,105.3,101.4,310.1,124.4,310.1C652.8-3457,717.9-3474.2,790.6-3497.1z M1502.6-3677.1c0-21-13.4-114.8-26.8-206.7c-23-162.7-9.6-411.5,32.5-566.6c13.4-42.1,9.6-44-61.3-34.5c-40.2,7.7-128.2,17.2-193.3,23l-116.7,13.4l-21.1,86.1c-59.3,235.4-61.3,495.8-1.9,712l19.1,70.8l185.7-30.6C1483.5-3636.9,1506.5-3644.5,1502.6-3677.1z M1977.3-3696.2l126.3-13.4l-28.7-116.8c-26.8-116.7-23-493.8,5.7-635.5l13.4-57.4l-179.9,9.6l-178,9.6l-32.5,134c-40.2,172.3-42.1,398.1-3.8,566.6l30.6,135.9l61.2-11.5C1824.2-3679,1908.4-3690.5,1977.3-3696.2z M2603.2-3755.5c76.6-9.6,82.3-15.3,72.7-55.5c-49.8-197.1-55.5-402-17.2-645l11.5-72.7H2496h-172.3l-23,65.1c-51.7,157-57.4,503.4-11.5,648.9c5.7,17.2,15.3,45.9,21.1,61.3C2318-3726.8,2362.1-3726.8,2603.2-3755.5z M3271.2-3807.2c1.9-1.9-9.6-55.5-24.9-118.7c-42.1-178-32.5-403.9,23-589.5c9.6-28.7-7.7-32.5-181.8-32.5h-191.4l-24.9,80.4c-30.6,111-30.6,461.3,1.9,587.6l26.8,103.3l183.8-15.3C3185.1-3797.7,3269.3-3805.3,3271.2-3807.2z M3826.3-3851.2c40.2-7.7,40.2-9.6,11.5-97.6c-32.5-107.2-38.3-398.1-9.6-516.8l19.1-82.3h-178h-176.1l-26.8,91.9c-34.5,116.8-34.5,468.9-1.9,562.7l24.9,72.7l147.4-11.5C3717.2-3837.8,3803.3-3845.5,3826.3-3851.2z M4419.7-3904.8c5.7-5.8,0-84.2-13.4-176.1c-19.1-153.1-17.2-266.1,11.5-413.4l11.5-53.6h-183.8h-181.8l-19.1,72.7c-49.8,185.7-44,388.6,17.2,547.4l21.1,55.5l164.6-11.5C4337.4-3889.5,4415.8-3899.1,4419.7-3904.8z M9526.4-4054.1c-32.5-49.8-80.4-90-137.8-114.8c-118.7-51.7-535.9-155-572.3-141.6c-21.1,7.6-26.8,32.5-23,82.3l5.7,72.7l141.7,13.4c243.1,24.9,453.6,93.8,585.7,195.2C9587.7-3901,9587.7-3960.4,9526.4-4054.1z M4986.2-3966.1c26.8-9.6,30.6-23,19.1-90c-17.2-95.7-17.2-342.6,0-428.7l13.4-63.2h-191.4h-189.5l-15.3,72.7c-19.1,90-19.1,373.2,0,468.9l15.3,74.6l156.9-13.4C4881-3950.8,4967.1-3962.3,4986.2-3966.1z M5545.1-4021.6c36.4-7.6,38.3-23,38.3-268V-4548h-176.1c-178,0-178,0-191.4,53.6c-19.1,68.9-19.1,380.9,0,449.8l15.3,53.6l137.8-11.5C5445.6-4008.2,5524.1-4017.8,5545.1-4021.6z M6180.6-4077.1c1.9,0-5.7-45.9-15.3-97.6c-11.5-53.6-13.4-158.9-7.7-233.5L6171-4548h-181.8c-212.5,0-204.8-9.6-204.8,248.8c0,266.1-7.6,254.6,208.6,239.3C6094.5-4067.5,6178.7-4075.2,6180.6-4077.1z M6691.7-4107.7h59.3v-204.8c0-116.8-7.7-212.5-19.1-220.1c-9.6-7.6-93.8-15.3-185.7-15.3h-164.6l-13.4,124.4c-13.4,114.8,0,283.3,23,323.5c5.7,9.6,63.2,11.5,126.3,3.8C6580.6-4102,6659.1-4107.7,6691.7-4107.7z M7342.5-4169c-7.7-24.9-13.4-111-11.5-191.4c0-149.3,0-149.3-49.8-149.3c-28.7,0-109.1-5.7-178-11.5l-128.3-13.4l-21.1,101.4c-21,99.5-13.4,206.7,21.1,273.7c13.4,26.8,44,32.5,199.1,32.5C7353.9-4126.9,7355.8-4126.9,7342.5-4169z M7918.6-4299.1c0-178,17.2-162.7-222-181.8l-147.4-13.4l-13.4,95.7c-7.7,53.6-3.8,128.2,9.6,174.2l21,78.5h176.1h178L7918.6-4299.1z M8578.9-4201.5c0-30.6,5.7-80.4,11.5-111l11.5-55.5l-225.8-32.5c-178-26.8-227.8-26.8-241.2-7.7c-21.1,32.5-19.1,155,3.8,212.5c17.2,49.8,21,49.8,229.7,49.8h210.5V-4201.5z"/></g></g>
</svg>